<svg width="652" height="658" viewBox="0 0 652 658" fill="none" xmlns="http://www.w3.org/2000/svg">
<path fill-rule="evenodd" clip-rule="evenodd" d="M315.319 0.276525C359.858 -3.91648 393.974 40.7856 437.198 52.3199C491.538 66.821 558.738 40.8459 602.004 76.7798C643.454 111.205 655.669 175.447 649.957 229.024C644.374 281.403 598.426 318.639 571.4 363.852C551.52 397.11 524.158 425.018 511.018 461.468C490.753 517.682 517.511 593.769 473.819 634.533C434.627 671.098 367.782 655.033 315.319 644.052C266.721 633.879 224.99 604.802 185.847 574.255C151.358 547.342 126.603 511.811 100.692 476.563C75.5723 442.391 51.1374 408.644 35.2108 369.336C17.556 325.764 -7.9765 279.836 2.40381 233.983C12.7837 188.131 53.4559 155.154 90.3061 125.962C123.356 99.7806 167.202 94.8335 204.012 74.2726C243.402 52.2705 270.399 4.5054 315.319 0.276525Z" fill="#C4C4C4"/>
</svg>
